<svg width="40" height="40" viewBox="0 0 40 40" fill="none" xmlns="http://www.w3.org/2000/svg">
<path d="M35.938 30.2201H32.1439C30.7084 30.2201 30.276 29.0659 27.7028 26.5098C25.4539 24.3583 24.5041 24.0908 23.9353 24.0908C23.1485 24.0908 22.9339 24.3054 22.9339 25.3804V28.7687C22.9339 29.6851 22.6345 30.2218 20.2227 30.2218C17.8828 30.0657 15.6138 29.3601 13.6025 28.163C11.5912 26.9658 9.89514 25.3115 8.65408 23.3362C5.70726 19.6952 3.65689 15.422 2.66602 10.8562C2.66602 10.2915 2.88225 9.77958 3.96676 9.77958H7.75919C8.73392 9.77958 9.08488 10.2106 9.46745 11.2062C11.3088 16.5859 14.4509 21.2655 15.7266 21.2655C16.2157 21.2655 16.4286 21.0509 16.4286 19.8405V14.299C16.2672 11.771 14.9149 11.558 14.9149 10.6432C14.932 10.4018 15.0432 10.1766 15.2249 10.0154C15.4066 9.85412 15.6445 9.76953 15.888 9.77958H21.8494C22.6645 9.77958 22.9339 10.1825 22.9339 11.1501V18.6302C22.9339 19.4376 23.2832 19.7051 23.5294 19.7051C24.0184 19.7051 24.3944 19.4376 25.2909 18.5493C27.2127 16.2227 28.7827 13.6305 29.9516 10.8545C30.0713 10.5212 30.2974 10.2359 30.5957 10.0422C30.8939 9.84837 31.2477 9.75674 31.6033 9.78124H35.3974C36.5351 9.78124 36.7763 10.346 36.5351 11.1518C35.1552 14.2204 33.4477 17.1333 31.442 19.8405C31.0328 20.4597 30.8698 20.7817 31.442 21.5083C31.8179 22.073 33.1486 23.176 34.0418 24.2245C35.3425 25.5125 36.422 27.0019 37.2387 28.6333C37.5648 29.6835 37.0208 30.2201 35.938 30.2201Z" fill="white"/>
</svg>
