<svg width="40" height="40" fill="none" xmlns="http://www.w3.org/2000/svg"><path d="M35.938 30.22h-3.794c-1.436 0-1.868-1.154-4.441-3.71-2.25-2.152-3.199-2.42-3.768-2.42-.787 0-1.001.215-1.001 1.29v3.389c0 .916-.3 1.453-2.711 1.453a14.882 14.882 0 01-6.62-2.059 14.754 14.754 0 01-4.949-4.827 29.926 29.926 0 01-5.988-12.48c0-.565.216-1.076 1.3-1.076H7.76c.975 0 1.326.43 1.708 1.426 1.842 5.38 4.984 10.06 6.26 10.06.489 0 .702-.215.702-1.425v-5.542c-.162-2.528-1.514-2.741-1.514-3.656a.927.927 0 01.31-.628.94.94 0 01.663-.235h5.961c.816 0 1.085.402 1.085 1.37v7.48c0 .808.35 1.075.595 1.075.49 0 .865-.267 1.762-1.156a30.932 30.932 0 004.66-7.694c.12-.334.346-.62.645-.813a1.642 1.642 0 011.007-.26h3.794c1.138 0 1.38.564 1.138 1.37a46.924 46.924 0 01-5.093 8.688c-.41.62-.572.942 0 1.668.376.565 1.707 1.668 2.6 2.716a16.77 16.77 0 013.197 4.41c.326 1.05-.218 1.586-1.301 1.586z" fill="#fff"/></svg>