<svg width="41" height="40" fill="none" xmlns="http://www.w3.org/2000/svg"><g clip-path="url(#clip0_1957_2530)"><path fill-rule="evenodd" clip-rule="evenodd" d="M20.223 6.667c1.425 0 2.887.037 4.304.097l1.673.08 1.602.095 1.5.101 1.37.107a6.337 6.337 0 015.823 5.705l.067.708.125 1.517c.116 1.572.203 3.285.203 4.923a67.83 67.83 0 01-.203 4.924l-.125 1.516c-.022.244-.044.479-.067.709a6.337 6.337 0 01-5.825 5.705l-1.367.105-1.5.103-1.603.095-1.673.08c-1.434.062-2.869.094-4.304.097a104.62 104.62 0 01-4.303-.097l-1.673-.08-1.602-.095-1.5-.103-1.37-.105a6.337 6.337 0 01-5.823-5.705l-.067-.709-.125-1.516A67.772 67.772 0 013.557 20c0-1.638.086-3.351.203-4.923l.125-1.517c.022-.243.043-.478.067-.708a6.337 6.337 0 015.821-5.705l1.369-.107 1.5-.101 1.603-.095 1.673-.08c1.434-.063 2.87-.095 4.305-.097zm-3.333 9.292v8.083a1 1 0 001.5.867l7-4.042a1 1 0 000-1.733l-7-4.04a1 1 0 00-1.5.866v-.001z" fill="#fff"/></g><defs><clipPath id="clip0_1957_2530"><path fill="#fff" transform="translate(.223)" d="M0 0h40v40H0z"/></clipPath></defs></svg>