<svg width="41" height="40" fill="none" xmlns="http://www.w3.org/2000/svg"><path d="M30.358 21.22c-.476-.938-1.82-1.728-3.605-.395-2.431 1.874-6.308 1.874-6.308 1.874s-3.877 0-6.309-1.875c-1.785-1.332-3.128-.542-3.604.395-.85 1.645.102 2.45 2.261 3.783 1.854 1.151 4.387 1.579 6.02 1.743l-1.36 1.316a694.647 694.647 0 00-5.085 4.901c-.765.756-.765 1.957 0 2.664l.238.264a2.03 2.03 0 002.789 0l5.05-4.902c1.955 1.859 3.809 3.652 5.101 4.901.765.74 2.006.74 2.789 0l.22-.263c.783-.707.783-1.907 0-2.664l-5.067-4.901-1.343-1.332c1.616-.148 4.115-.592 5.951-1.727 2.16-1.332 3.112-2.138 2.262-3.783zM20.445 7.781c2.346 0 4.25 1.842 4.25 4.096 0 2.27-1.904 4.095-4.25 4.095-2.347 0-4.251-1.826-4.251-4.095 0-2.254 1.904-4.096 4.25-4.096zm0 12.418c4.76 0 8.604-3.717 8.604-8.322a8.186 8.186 0 00-2.52-5.885 8.754 8.754 0 00-6.084-2.437c-2.282 0-4.47.876-6.084 2.437a8.186 8.186 0 00-2.52 5.885c0 4.605 3.843 8.322 8.604 8.322z" fill="#fff"/></svg>