<svg width="41" height="40" fill="none" xmlns="http://www.w3.org/2000/svg"><g clip-path="url(#clip0_2026_16030)"><path fill-rule="evenodd" clip-rule="evenodd" d="M20.223 6.667c1.425 0 2.887.036 4.304.096l1.673.08 1.602.095 1.5.102 1.37.106a6.337 6.337 0 015.823 5.705l.067.709.125 1.516c.116 1.572.203 3.285.203 4.924a67.83 67.83 0 01-.203 4.923l-.125 1.517c-.022.243-.044.478-.067.708a6.337 6.337 0 01-5.825 5.705l-1.367.105-1.5.104-1.603.095-1.673.08c-1.434.062-2.869.094-4.304.096-1.435-.002-2.87-.034-4.303-.096l-1.673-.08-1.602-.095-1.5-.104-1.37-.105a6.337 6.337 0 01-5.823-5.705l-.067-.708-.125-1.517A67.772 67.772 0 013.557 20c0-1.639.086-3.352.203-4.924l.125-1.516c.022-.244.043-.479.067-.709a6.337 6.337 0 015.821-5.705l1.369-.106 1.5-.102 1.603-.095 1.673-.08c1.434-.062 2.87-.094 4.305-.096zm-3.333 9.291v8.083a1 1 0 001.5.867l7-4.042a1 1 0 000-1.733l-7-4.04a1 1 0 00-1.5.867v-.002z" fill="#121212" fill-opacity=".8"/></g><defs><clipPath id="clip0_2026_16030"><path fill="#fff" transform="translate(.223)" d="M0 0h40v40H0z"/></clipPath></defs></svg>