<svg width="21" height="34" viewBox="0 0 21 34" fill="none" xmlns="http://www.w3.org/2000/svg">
<path d="M20.357 18.2192C19.8809 17.2818 18.5377 16.4923 16.7523 17.8245C14.3207 19.6994 10.4439 19.6994 10.4439 19.6994C10.4439 19.6994 6.56706 19.6994 4.13554 17.8245C2.35015 16.4923 1.00686 17.2818 0.530755 18.2192C-0.319429 19.8639 0.632777 20.6697 2.79224 22.0019C4.64565 23.1532 7.1792 23.5808 8.81155 23.7452L7.45125 25.0609C5.51283 26.9194 3.64243 28.7121 2.36715 29.962C1.60199 30.7185 1.60199 31.9191 2.36715 32.6263L2.6052 32.8895C3.37037 33.6296 4.62864 33.6296 5.39381 32.8895L10.4439 27.9884C12.3993 29.8469 14.2527 31.6396 15.545 32.8895C16.3102 33.6296 17.5514 33.6296 18.3336 32.8895L18.5547 32.6263C19.3368 31.9191 19.3368 30.7185 18.5547 29.962L13.4876 25.0609L12.1443 23.7288C13.7596 23.5808 16.2592 23.1367 18.0956 22.0019C20.255 20.6697 21.2072 19.8639 20.357 18.2192ZM10.4439 4.78241C12.7904 4.78241 14.6948 6.62442 14.6948 8.87759C14.6948 11.1472 12.7904 12.9728 10.4439 12.9728C8.09739 12.9728 6.19298 11.1472 6.19298 8.87759C6.19298 6.62442 8.09739 4.78241 10.4439 4.78241ZM10.4439 17.1995C15.2049 17.1995 19.0478 13.4826 19.0478 8.87759C19.0478 6.67048 18.1413 4.55377 16.5278 2.9931C14.9142 1.43244 12.7258 0.555664 10.4439 0.555664C8.16202 0.555664 5.97359 1.43244 4.36005 2.9931C2.74651 4.55377 1.84004 6.67048 1.84004 8.87759C1.84004 13.4826 5.68287 17.1995 10.4439 17.1995Z" fill="white"/>
</svg>
