<svg width="41" height="40" viewBox="0 0 41 40" fill="none" xmlns="http://www.w3.org/2000/svg">
<path fill-rule="evenodd" clip-rule="evenodd" d="M20.2228 6.66699C21.6478 6.66699 23.1095 6.70366 24.5262 6.76366L26.1995 6.84366L27.8012 6.93866L29.3012 7.04033L30.6712 7.14699C32.1579 7.26079 33.5569 7.89524 34.622 8.93872C35.6872 9.98221 36.3502 11.3679 36.4945 12.852L36.5611 13.5603L36.6862 15.077C36.8028 16.6487 36.8895 18.362 36.8895 20.0003C36.8895 21.6387 36.8028 23.352 36.6862 24.9237L36.5611 26.4403C36.5395 26.6837 36.5178 26.9187 36.4945 27.1487C36.3501 28.633 35.6869 30.0189 34.6214 31.0624C33.5559 32.106 32.1565 32.7402 30.6695 32.8537L29.3028 32.9587L27.8028 33.062L26.1995 33.157L24.5262 33.237C23.0925 33.2993 21.6578 33.3315 20.2228 33.3337C18.7879 33.3315 17.3531 33.2993 15.9195 33.237L14.2462 33.157L12.6445 33.062L11.1445 32.9587L9.77449 32.8537C8.28774 32.7399 6.88874 32.1054 5.82361 31.0619C4.75847 30.0184 4.09544 28.6328 3.95115 27.1487L3.88449 26.4403L3.75949 24.9237C3.63205 23.2856 3.56423 21.6434 3.55615 20.0003C3.55615 18.362 3.64282 16.6487 3.75949 15.077L3.88449 13.5603C3.90615 13.317 3.92782 13.082 3.95115 12.852C4.09539 11.3682 4.75818 9.98268 5.82297 8.93923C6.88776 7.89578 8.28637 7.26116 9.77282 7.14699L11.1412 7.04033L12.6412 6.93866L14.2445 6.84366L15.9178 6.76366C17.352 6.70138 18.7873 6.66915 20.2228 6.66699ZM16.8895 15.9587V24.042C16.8895 24.812 17.7228 25.292 18.3895 24.9087L25.3895 20.867C25.5418 20.7793 25.6683 20.653 25.7563 20.5009C25.8443 20.3487 25.8906 20.1761 25.8906 20.0003C25.8906 19.8246 25.8443 19.6519 25.7563 19.4998C25.6683 19.3476 25.5418 19.2213 25.3895 19.1337L18.3895 15.0937C18.2374 15.0059 18.0649 14.9597 17.8893 14.9597C17.7137 14.9597 17.5412 15.006 17.3892 15.0938C17.2372 15.1817 17.1109 15.308 17.0232 15.4601C16.9355 15.6122 16.8894 15.7847 16.8895 15.9603V15.9587Z" fill="white"/>
</svg>
